<svg width="48" height="48" viewBox="0 0 48 48" fill="none" xmlns="http://www.w3.org/2000/svg">
<path d="M37.921 24.0489L45.7048 16.4236C47.501 14.664 47.501 11.9267 45.7048 10.167L34.6278 21.0183L32.632 19.0631L40.5156 11.3401C42.3119 9.58045 42.3119 6.84319 40.5156 5.08351L29.3389 16.0326L27.343 14.0774L35.3264 6.25663C37.1227 4.49695 37.1227 1.75967 35.3264 0L24.0499 10.8513L16.8649 3.71487C15.0686 1.9552 12.2744 1.9552 10.4782 3.71487L20.8565 13.8819L18.7609 15.9348L11.5759 8.89614C9.77963 7.13646 6.98543 7.13646 5.18917 8.89614L15.5676 19.0631L13.5717 21.0183L6.38669 13.9796C4.59043 12.22 1.79626 12.22 0 13.9796L10.1788 23.9511L2.395 31.5764C0.598746 33.336 0.598746 36.0733 2.395 37.833L13.4719 26.9817L15.4678 28.9369L7.5842 36.6599C5.78795 38.4195 5.78795 41.1568 7.5842 42.9165L18.7609 31.9674L20.7567 33.9226L12.7734 41.7434C10.9771 43.5031 10.9771 46.2403 12.7734 48L23.9501 37.0509L31.1351 44.1874C32.9314 45.9471 35.7256 45.9471 37.5218 44.1874L27.1434 34.0204L29.2391 31.9674L36.4241 39.0061C38.2204 40.7658 41.0145 40.7658 42.8108 39.0061L32.4324 28.8391L34.4283 26.8839L41.6133 33.9226C43.4095 35.6823 46.2037 35.6823 48 33.9226L37.921 24.0489ZM24.0499 17.0102L26.0457 18.9654L23.9501 21.0183L21.9543 19.0631L24.0499 17.0102ZM18.7609 25.8086L16.9647 24.0489L18.7609 22.2892L20.5572 24.1466L18.7609 25.8086ZM24.0499 30.8921L22.0541 28.9369L24.1497 26.8839L26.1455 28.8391L24.0499 30.8921ZM27.5426 23.9511L29.3389 22.1915L31.1351 23.9511L29.3389 25.7108L27.5426 23.9511Z" fill="#7B62FF"/>
</svg>
